# xmcd
#
# Track frame offsets:
#       150
#       18487
#       35732
#       52974
#       69978
#       88459
#       103711
#       122120
#       141966
#       160906
#
# Disc length: 2346 seconds
#
# Revision: 0
# Processed by: cddbd v1.5.2PL0 Copyright (c) Steve Scherf et al.
# Submitted via: WaveLab 4.01
#
DISCID=8c09280a
DTITLE=Night Life - Night Life
DYEAR=1900
DGENRE=
TTITLE0=Lost My Soul
TTITLE1=The Passion
TTITLE2=Be Over
TTITLE3=Dancing On The Lake
TTITLE4=Fly Away
TTITLE5=A Fancy Story
TTITLE6=All This
TTITLE7=Blown By The Wind
TTITLE8=Stay More Time
TTITLE9=Everybody Has Been Learned
EXTD=
EXTT0=
EXTT1=
EXTT2=
EXTT3=
EXTT4=
EXTT5=
EXTT6=
EXTT7=
EXTT8=
EXTT9=
PLAYORDER=
